<?xml version="1.0" encoding="UTF-8" standalone="no"?>
<svg
   version="1.1"
   x="0px"
   y="0px"
   width="1000"
   height="781.44427"
   viewBox="0 0 1000 781.44427"
   enable-background="new 0 0 1000 1500"
   xml:space="preserve"
   id="svg6"
   xmlns="http://www.w3.org/2000/svg"
   xmlns:svg="http://www.w3.org/2000/svg"><defs
   id="defs6">
	
	
	
	
	
	
	
	
	

	
</defs>

<g
   id="g6"
   transform="matrix(1.6393443,0,0,1.6393443,-319.67214,-1546.4246)"><g
     id="baseline">
		<path
   id="rect1"
   style="fill:#61995e;fill-opacity:1"
   d="M 801.071,1417.47 H 198.935 L 373.616,943.767 H 627.44 Z" />
		<path
   fill="#ffffff"
   d="M 202.845,1414.95 374.712,944.217 h 251.63 L 797.166,1414.95 Z M 195,1420 H 805 L 628.535,943.319 H 372.522 Z"
   id="path1" />
	</g><path
     id="net_line"
     style="fill:none;stroke:#ffffff;stroke-width:6;stroke-dasharray:none;stroke-dashoffset:0"
     d="M 680.702,1084.24 H 320.043" /><g
     id="service_line">
		<path
   fill="#ffffff"
   d="m 299.786,1149.43 42.57,-116.59 h 316.146 l 42.312,116.59 z m -4.879,2.3 H 705.688 L 661.15,1031.42 H 339.711 Z"
   id="path2" />
	</g><g
     id="bottom_baseline">
		<path
   fill="#ffffff"
   d="m 370.989,954.414 3.723,-10.197 h 251.63 l 3.701,10.197 z m -2.955,0.957 h 264.962 l -4.461,-12.052 H 372.522 Z"
   id="path3" />
	</g><g
     id="top_baseline">
		<path
   fill="#ffffff"
   d="m 202.845,1414.95 18.896,-51.76 h 556.644 l 18.781,51.76 z M 195,1420 h 610 l -22.652,-61.19 H 217.787 Z"
   id="path4" />
	</g><path
     id="bottom_center_line"
     style="fill:none;stroke:#ffffff;stroke-width:6"
     d="m 500.528,943.767 -0.098,88.363" /><path
     id="top_center_line"
     style="fill:none;stroke:#ffffff;stroke-width:6"
     d="m 500.299,1150.58 -0.296,266.89" /><g
     id="left_double_line">
		<path
   fill="#ffffff"
   d="M 761.387,1414.95 611.194,944.217 h 15.148 L 797.166,1414.95 Z M 757,1420 h 48 L 628.535,943.319 h -20.146 z"
   id="path5" />
	</g><g
     id="right_double_line">
		<path
   fill="#ffffff"
   d="M 202.845,1414.95 374.712,944.217 h 15.149 L 238.624,1414.95 Z M 195,1420 h 48 L 392.667,943.319 h -20.145 z"
   id="path6" />
	</g></g>
</svg>
