<?xml version="1.0" encoding="UTF-8" standalone="no"?>
<svg
   version="1.1"
   x="0px"
   y="0px"
   width="610"
   height="1340"
   viewBox="0 0 610 1340"
   enable-background="new 0 0 1000 1500"
   xml:space="preserve"
   id="svg6"
   xmlns="http://www.w3.org/2000/svg"
   xmlns:svg="http://www.w3.org/2000/svg"><defs
   id="defs6" />

<g
   id="ground"
   transform="translate(-195,-80)">
	<g
   id="baseline">
		<path
   id="rect1"
   style="display:inline;fill:#61995e;fill-opacity:1"
   d="M 198,83 H 802 V 1417 H 198 Z" />
		<path
   fill="#ffffff"
   d="M 799,86 V 1414 H 201 V 86 h 598 m 6,-6 H 195 v 1340 h 610 z"
   id="path1" />
	</g>
	<path
   id="net_line"
   style="fill:none;stroke:#ffffff;stroke-width:6;stroke-dasharray:12"
   d="M 195,750 H 805" />
	<g
   id="service_line">
		<path
   fill="#ffffff"
   d="M 799,556 V 944 H 201 V 556 h 598 m 6,-6 H 195 v 400 h 610 z"
   id="path2" />
	</g>
	<g
   id="bottom_baseline">
		<path
   fill="#ffffff"
   d="m 799,1348 v 66 H 201 v -66 h 598 m 6,-6 H 195 v 78 h 610 z"
   id="path3" />
	</g>
	<g
   id="top_baseline">
		<path
   fill="#ffffff"
   d="m 799,86 v 66 H 201 V 86 h 598 m 6,-6 H 195 v 78 h 610 z"
   id="path4" />
	</g>
	<path
   id="bottom_center_line"
   style="fill:none;stroke:#ffffff;stroke-width:6"
   d="M 500,1417 V 947" />
	<path
   id="top_center_line"
   style="fill:none;stroke:#ffffff;stroke-width:6"
   d="M 500,553 V 83" />
	<g
   id="left_double_line">
		<path
   fill="#ffffff"
   d="M 237,86 V 1414 H 201 V 86 h 36 m 6,-6 h -48 v 1340 h 48 z"
   id="path5" />
	</g>
	<g
   id="right_double_line">
		<path
   fill="#ffffff"
   d="M 799,86 V 1414 H 763 V 86 h 36 m 6,-6 h -48 v 1340 h 48 z"
   id="path6" />
	</g>
</g>
</svg>
